# xmcd
#
# Track frame offsets:
#	150
#	17780
#	40430
#	68475
#	84395
#	104527
#	124672
#	141545
#	157472
#	163930
#	195940
#	211392
#	222255
#	232870
#	244227
#	266157
#	276505
#
# Disc length: 3810 seconds
#
# Revision: 1
# Processed by: cddbd v1.4PL0 Copyright (c) Steve Scherf et al.
# Submitted via: audiograbber 1.82.01
#
DISCID=060ee011
DTITLE=clapton, eric - 1992 - my blues
DYEAR=1992
DGENRE=Blues
TTITLE0=before you accuse me
TTITLE1=lonely stranger
TTITLE2=running on faith
TTITLE3=nobody knows you when you're down and out
TTITLE4=layla
TTITLE5=tears in heaven
TTITLE6=circus has left town
TTITLE7=alberta, alberta
TTITLE8=rollin' and tumblin'
TTITLE9=old love
TTITLE10=give me strengh (1974)
TTITLE11=give me strengh (1974)
TTITLE12=why did you leave heaven (1978)
TTITLE13=blues "jam" (1978)
TTITLE14=oh how i miss my baby's love (1980)
TTITLE15=standing around crying (1991)
TTITLE16=tears in heaven (1992)
EXTD=
EXTT0=
EXTT1=
EXTT2=
EXTT3=
EXTT4=
EXTT5=
EXTT6=
EXTT7=
EXTT8=
EXTT9=
EXTT10=
EXTT11=
EXTT12=
EXTT13=
EXTT14=
EXTT15=
EXTT16=
PLAYORDER=
